# xmcd
#
# Track frame offsets:
#  150
#  14215
#  26666
#  39375
#  52573
#  65173
#  76613
#  88796
#  100615
#  114383
#  125512
#  136861
#  149422
#  162677
#  176805
#  189587
#  201782
#  214760
#  227060
#  239440
#  250657
#
# Disc length: 3509 seconds
#
# Revision: 0
# Processed by: cddbd v1.5.2PL0 Copyright (c) Steve Scherf et al.
# Submitted via: AltoMP3_Maker 3.0
#
DISCID=250db315
DTITLE=Roy Rogers - The First Classic Recordings of Roy Rogers
DYEAR=1900
DGENRE=
TTITLE0=Listen to the Rhythm of the Range
TTITLE1=Headin' for Texas and Home
TTITLE2=When the Sun Is Setting on the Prairie
TTITLE3=Born to the Saddle
TTITLE4=I've Learned a Lot about Women
TTITLE5=Ridin' Down the Trail
TTITLE6=I've Sold My Saddle for an Old Guitar
TTITLE7=Dust
TTITLE8=That Pioneer Mother of Mine
TTITLE9=Somebody's Smile
TTITLE10=I Know I Shouldn't Worry, but I Do
TTITLE11=Little Old Church on the Hilltop
TTITLE12=When a Cowboy Sings a Song
TTITLE13=There's a Ranch in the Rockies
TTITLE14=I Hope I'm Not Dreaming Again
TTITLE15=She's All Wet Now
TTITLE16=When I Camped under the Stars
TTITLE17=Rusty Spurs
TTITLE18=Colorado Sunset
TTITLE19=Ridin' Ropin' (No. 1)
TTITLE20=When Mother Nature Sings Her Lullaby
EXTD=
EXTT0=
EXTT1=
EXTT2=
EXTT3=
EXTT4=
EXTT5=
EXTT6=
EXTT7=
EXTT8=
EXTT9=
EXTT10=
EXTT11=
EXTT12=
EXTT13=
EXTT14=
EXTT15=
EXTT16=
EXTT17=
EXTT18=
EXTT19=
EXTT20=
PLAYORDER=
